<svg width="224" height="70" viewBox="0 0 224 70" fill="none" xmlns="http://www.w3.org/2000/svg">
      <path d="M0.0400002 69V60.45C1.45 58.23 3.07 55.905 4.9 53.475C6.76 51.015 8.665 48.615 10.615 46.275C12.565 43.905 14.47 41.67 16.33 39.57C18.19 37.47 19.825 35.655 21.235 34.125C22.855 32.385 24.235 30.915 25.375 29.715C26.515 28.515 27.43 27.405 28.12 26.385C28.81 25.365 29.305 24.345 29.605 23.325C29.935 22.275 30.1 21.045 30.1 19.635C30.1 18.525 29.905 17.43 29.515 16.35C29.155 15.24 28.63 14.25 27.94 13.38C27.25 12.51 26.41 11.82 25.42 11.31C24.46 10.77 23.365 10.5 22.135 10.5C19.675 10.5 17.515 11.325 15.655 12.975C13.795 14.625 12.145 16.86 10.705 19.68L0.22 15.765C1.09 13.455 2.215 11.385 3.595 9.555C4.975 7.695 6.595 6.12 8.455 4.82999C10.345 3.51 12.475 2.505 14.845 1.815C17.245 1.095 19.9 0.734996 22.81 0.734996C26.23 0.734996 29.275 1.305 31.945 2.445C34.615 3.555 36.865 5.025 38.695 6.855C40.555 8.685 41.965 10.77 42.925 13.11C43.885 15.42 44.365 17.76 44.365 20.13C44.365 22.23 44.035 24.165 43.375 25.935C42.715 27.705 41.83 29.415 40.72 31.065C39.61 32.685 38.35 34.305 36.94 35.925C35.53 37.545 34.075 39.255 32.575 41.055C31.075 42.855 29.515 44.685 27.895 46.545C26.305 48.405 24.775 50.175 23.305 51.855C21.865 53.535 20.545 55.08 19.345 56.49C18.175 57.9 17.26 59.07 16.6 60H45.49V69H0.0400002ZM80.4452 69.72C77.6552 69.72 75.0902 69.24 72.7502 68.28C70.4102 67.29 68.3102 65.955 66.4502 64.275C64.5902 62.595 62.9552 60.63 61.5452 58.38C60.1352 56.13 58.9652 53.73 58.0352 51.18C57.1052 48.63 56.4002 45.99 55.9202 43.26C55.4702 40.53 55.2452 37.86 55.2452 35.25C55.2452 32.55 55.4402 29.835 55.8302 27.105C56.2202 24.345 56.8352 21.69 57.6752 19.14C58.5452 16.56 59.6402 14.16 60.9602 11.94C62.3102 9.72 63.9152 7.785 65.7752 6.135C67.6352 4.455 69.7802 3.15 72.2102 2.22C74.6402 1.26 77.3852 0.779999 80.4452 0.779999C83.2352 0.779999 85.8002 1.275 88.1402 2.265C90.4802 3.225 92.5802 4.545 94.4402 6.225C96.3002 7.905 97.9352 9.87 99.3452 12.12C100.755 14.37 101.925 16.77 102.855 19.32C103.785 21.87 104.475 24.51 104.925 27.24C105.405 29.97 105.645 32.64 105.645 35.25C105.645 37.95 105.435 40.68 105.015 43.44C104.625 46.17 104.01 48.825 103.17 51.405C102.33 53.955 101.235 56.34 99.8852 58.56C98.5652 60.78 96.9602 62.73 95.0702 64.41C93.2102 66.06 91.0652 67.365 88.6352 68.325C86.2052 69.255 83.4752 69.72 80.4452 69.72ZM70.9052 33.405C70.9052 34.935 70.9502 36.63 71.0402 38.49C71.1302 40.35 71.2952 42.225 71.5352 44.115C71.8052 45.975 72.1652 47.79 72.6152 49.56C73.0652 51.33 73.6502 52.905 74.3702 54.285C75.1202 55.665 76.0052 56.775 77.0252 57.615C78.0752 58.425 79.3202 58.83 80.7602 58.83C82.0202 58.83 83.1152 58.53 84.0452 57.93C85.0052 57.3 85.8302 56.46 86.5202 55.41C87.2102 54.33 87.7802 53.085 88.2302 51.675C88.6802 50.235 89.0252 48.705 89.2652 47.085C89.5352 45.465 89.7152 43.815 89.8052 42.135C89.9252 40.425 89.9852 38.745 89.9852 37.095C89.9852 35.565 89.9402 33.87 89.8502 32.01C89.7602 30.15 89.5802 28.29 89.3102 26.43C89.0702 24.54 88.7252 22.71 88.2752 20.94C87.8252 19.17 87.2252 17.61 86.4752 16.26C85.7552 14.88 84.8702 13.785 83.8202 12.975C82.7702 12.135 81.5252 11.715 80.0852 11.715C78.8252 11.715 77.7152 12.03 76.7552 12.66C75.8252 13.26 75.0152 14.1 74.3252 15.18C73.6352 16.23 73.0652 17.475 72.6152 18.915C72.1952 20.325 71.8502 21.84 71.5802 23.46C71.3402 25.05 71.1602 26.7 71.0402 28.41C70.9502 30.12 70.9052 31.785 70.9052 33.405ZM135.92 29.4L139.25 13.065L129.035 25.26L125.255 28.59L118.28 20.265L139.88 0.374996L150.815 1.86V60H161.75V69H124.985V60H135.92V29.4ZM183.565 60.045C185.635 59.985 187.675 59.64 189.685 59.01C191.695 58.35 193.6 57.495 195.4 56.445C197.2 55.395 198.865 54.165 200.395 52.755C201.925 51.345 203.245 49.815 204.355 48.165C205.495 46.515 206.395 44.79 207.055 42.99C207.715 41.16 208.06 39.33 208.09 37.5L200.08 44.34C199.6 44.4 199.105 44.445 198.595 44.475C198.115 44.505 197.62 44.52 197.11 44.52C193.84 44.52 190.78 44.025 187.93 43.035C185.08 42.015 182.605 40.575 180.505 38.715C178.405 36.855 176.755 34.62 175.555 32.01C174.355 29.37 173.755 26.445 173.755 23.235C173.755 19.905 174.325 16.86 175.465 14.1C176.605 11.34 178.225 8.97 180.325 6.99C182.455 5.01 185.02 3.48 188.02 2.4C191.02 1.29 194.38 0.734996 198.1 0.734996C201.4 0.734996 204.31 1.2 206.83 2.13C209.35 3.06 211.525 4.305 213.355 5.86499C215.215 7.39499 216.76 9.165 217.99 11.175C219.25 13.185 220.24 15.27 220.96 17.43C221.71 19.56 222.235 21.69 222.535 23.82C222.865 25.95 223.03 27.915 223.03 29.715C223.03 35.025 222.19 40.02 220.51 44.7C218.83 49.35 216.385 53.46 213.175 57.03C209.965 60.57 206.035 63.465 201.385 65.715C196.735 67.935 191.44 69.285 185.5 69.765L183.565 60.045ZM197.515 34.755C198.535 34.755 199.585 34.515 200.665 34.035C201.745 33.555 202.765 32.925 203.725 32.145C204.685 31.365 205.555 30.48 206.335 29.49C207.145 28.5 207.79 27.495 208.27 26.475C208.18 24.585 207.895 22.695 207.415 20.805C206.935 18.885 206.26 17.16 205.39 15.63C204.55 14.1 203.53 12.87 202.33 11.94C201.16 10.98 199.855 10.5 198.415 10.5C197.005 10.5 195.7 10.83 194.5 11.49C193.33 12.12 192.295 12.975 191.395 14.055C190.525 15.135 189.835 16.41 189.325 17.88C188.845 19.32 188.605 20.85 188.605 22.47C188.605 24.09 188.8 25.635 189.19 27.105C189.61 28.575 190.195 29.88 190.945 31.02C191.725 32.16 192.655 33.075 193.735 33.765C194.845 34.425 196.105 34.755 197.515 34.755Z"
            fill="black" fill-opacity="0.2" />
</svg>