<svg width="479" height="243" viewBox="0 0 479 243" fill="none" xmlns="http://www.w3.org/2000/svg">
      <path d="M8.49366e-07 240V-3.57628e-06H60.9C83.4 -3.57628e-06 99.65 4.79999 109.65 14.4C119.75 23.9 125 39.6 125.4 61.5C125.7 75.4 125.9 88.6 126 101.1C126.1 113.6 126.1 126.1 126 138.6C125.9 151.1 125.7 164.3 125.4 178.2C125 200.2 119.75 216 109.65 225.6C99.65 235.2 83.4 240 60.9 240H8.49366e-07ZM45 200.4H60.9C67.2 200.4 72 198.95 75.3 196.05C78.6 193.15 80.3 189 80.4 183.6C80.7 172.9 80.9 162.25 81 151.65C81.2 141.05 81.3 130.45 81.3 119.85C81.3 109.25 81.2 98.65 81 88.05C80.9 77.35 80.7 66.7 80.4 56.1C80.3 50.8 78.6 46.75 75.3 43.95C72 41.05 67.2 39.6 60.9 39.6H45V200.4ZM187.27 243C174.87 243 164.92 239.1 157.42 231.3C149.92 223.4 146.17 210.4 146.17 192.3V60H191.17V196.2C191.17 201 192.32 204.55 194.62 206.85C196.92 209.15 200.37 210.3 204.97 210.3C209.07 210.3 213.37 209.15 217.87 206.85C222.47 204.45 225.67 201.3 227.47 197.4V60H272.47V240H227.47V220.5H221.47C216.87 228.6 211.87 234.4 206.47 237.9C201.17 241.3 194.77 243 187.27 243ZM297.227 33.9V-3.57628e-06H342.227V33.9H297.227ZM297.227 240V60H342.227V240H297.227ZM419.004 243C399.704 243 385.854 238.85 377.454 230.55C369.054 222.25 364.404 208.6 363.504 189.6C363.404 186.3 363.404 182.5 363.504 178.2C363.604 173.8 363.704 171.1 363.804 170.1H403.104C403.004 175.3 402.954 180.05 402.954 184.35C402.954 188.65 403.004 192 403.104 194.4C403.404 199.8 404.904 203.65 407.604 205.95C410.404 208.25 414.204 209.4 419.004 209.4C425.204 209.4 429.704 208.25 432.504 205.95C435.304 203.65 436.704 199.8 436.704 194.4C436.704 191.9 436.704 190.45 436.704 190.05C436.704 189.65 436.704 189.3 436.704 189C436.704 188.6 436.704 187.2 436.704 184.8C436.704 181.8 435.954 179.25 434.454 177.15C433.054 174.95 430.604 173.4 427.104 172.5L405.804 166.5C396.804 163.9 389.054 160.65 382.554 156.75C376.054 152.85 371.054 147.9 367.554 141.9C364.054 135.9 362.304 128.5 362.304 119.7C362.304 118.2 362.304 116.75 362.304 115.35C362.304 113.95 362.304 112.6 362.304 111.3C362.304 91.9 366.704 78 375.504 69.6C384.304 61.2 399.504 57 421.104 57C440.604 57 454.454 61.05 462.654 69.15C470.854 77.25 475.404 90.6 476.304 109.2C476.504 112.5 476.554 116.4 476.454 120.9C476.354 125.4 476.204 128.2 476.004 129.3H435.204C435.304 127.5 435.354 124.9 435.354 121.5C435.454 118 435.454 114.6 435.354 111.3C435.354 107.9 435.304 105.5 435.204 104.1C434.904 99.3 433.704 95.85 431.604 93.75C429.604 91.65 426.104 90.6 421.104 90.6C415.704 90.6 411.904 91.65 409.704 93.75C407.504 95.85 406.304 99.3 406.104 104.1C406.004 106.3 405.904 107.9 405.804 108.9C405.804 109.9 405.804 112.2 405.804 115.8C405.804 119.5 406.504 122.65 407.904 125.25C409.304 127.85 412.304 129.7 416.904 130.8L435.504 135.3C449.504 138.6 460.104 143.85 467.304 151.05C474.504 158.15 478.104 168.6 478.104 182.4C478.104 183.7 478.104 185.1 478.104 186.6C478.104 188 478.104 189.4 478.104 190.8C478.104 209.4 473.554 222.75 464.454 230.85C455.354 238.95 440.204 243 419.004 243Z"
            fill="black" />
</svg>