<svg width="203" height="39" viewBox="0 0 203 39" fill="none" xmlns="http://www.w3.org/2000/svg">
      <path d="M0.512 38V4.4H6.752V38H0.512ZM96.9808 38V4.4H111.669C115.317 4.4 118.517 5.104 121.269 6.512C124.021 7.92 126.165 9.872 127.701 12.368C129.237 14.864 130.005 17.808 130.005 21.2C130.005 24.56 129.237 27.504 127.701 30.032C126.165 32.528 124.021 34.48 121.269 35.888C118.517 37.296 115.317 38 111.669 38H96.9808ZM103.221 32.72H111.381C113.909 32.72 116.085 32.24 117.909 31.28C119.765 30.32 121.189 28.976 122.181 27.248C123.205 25.52 123.717 23.504 123.717 21.2C123.717 18.864 123.205 16.848 122.181 15.152C121.189 13.424 119.765 12.08 117.909 11.12C116.085 10.16 113.909 9.68 111.381 9.68H103.221V32.72Z"
            fill="#FF7009" />
      <path d="M29.8081 12.08C31.8561 12.08 33.6801 12.48 35.2801 13.28C36.9121 14.08 38.1921 15.312 39.1201 16.976C40.0481 18.608 40.5121 20.72 40.5121 23.312V38H34.5121V24.08C34.5121 21.808 33.9681 20.112 32.8801 18.992C31.8241 17.872 30.3361 17.312 28.4161 17.312C27.0081 17.312 25.7601 17.6 24.6721 18.176C23.5841 18.752 22.7361 19.616 22.1281 20.768C21.5521 21.888 21.2641 23.312 21.2641 25.04V38H15.2641V12.368H20.9761V19.28L19.9681 17.168C20.8641 15.536 22.1601 14.288 23.8561 13.424C25.5841 12.528 27.5681 12.08 29.8081 12.08ZM48.9395 38V10.928C48.9395 8.24 49.7235 6.096 51.2915 4.496C52.8915 2.864 55.1635 2.048 58.1075 2.048C59.1635 2.048 60.1555 2.16 61.0835 2.384C62.0435 2.608 62.8435 2.96 63.4835 3.44L61.8515 7.952C61.4035 7.6 60.8915 7.344 60.3155 7.184C59.7395 6.992 59.1475 6.896 58.5395 6.896C57.2915 6.896 56.3475 7.248 55.7075 7.952C55.0675 8.624 54.7475 9.648 54.7475 11.024V13.904L54.9395 16.592V38H48.9395ZM44.7155 17.36V12.56H61.8035V17.36H44.7155ZM76.9873 38.336C74.3633 38.336 72.0273 37.776 69.9793 36.656C67.9313 35.504 66.3153 33.936 65.1313 31.952C63.9473 29.968 63.3553 27.712 63.3553 25.184C63.3553 22.624 63.9473 20.368 65.1313 18.416C66.3153 16.432 67.9313 14.88 69.9793 13.76C72.0273 12.64 74.3633 12.08 76.9873 12.08C79.6433 12.08 81.9953 12.64 84.0433 13.76C86.1233 14.88 87.7393 16.416 88.8913 18.368C90.0753 20.32 90.6673 22.592 90.6673 25.184C90.6673 27.712 90.0753 29.968 88.8913 31.952C87.7393 33.936 86.1233 35.504 84.0433 36.656C81.9953 37.776 79.6433 38.336 76.9873 38.336ZM76.9873 33.2C78.4593 33.2 79.7713 32.88 80.9233 32.24C82.0753 31.6 82.9713 30.672 83.6113 29.456C84.2833 28.24 84.6193 26.816 84.6193 25.184C84.6193 23.52 84.2833 22.096 83.6113 20.912C82.9713 19.696 82.0753 18.768 80.9233 18.128C79.7713 17.488 78.4753 17.168 77.0353 17.168C75.5633 17.168 74.2513 17.488 73.0993 18.128C71.9793 18.768 71.0833 19.696 70.4113 20.912C69.7393 22.096 69.4033 23.52 69.4033 25.184C69.4033 26.816 69.7393 28.24 70.4113 29.456C71.0833 30.672 71.9793 31.6 73.0993 32.24C74.2513 32.88 75.5473 33.2 76.9873 33.2ZM146.909 38.336C144.733 38.336 142.813 37.936 141.149 37.136C139.485 36.304 138.189 35.056 137.261 33.392C136.333 31.696 135.869 29.568 135.869 27.008V12.368H141.869V26.192C141.869 28.496 142.381 30.224 143.405 31.376C144.461 32.496 145.949 33.056 147.869 33.056C149.277 33.056 150.493 32.768 151.517 32.192C152.573 31.616 153.389 30.752 153.965 29.6C154.573 28.448 154.877 27.024 154.877 25.328V12.368H160.877V38H155.165V31.088L156.173 33.2C155.309 34.864 154.045 36.144 152.381 37.04C150.717 37.904 148.893 38.336 146.909 38.336ZM168.733 38V12.368H174.733V38H168.733ZM171.757 8.144C170.637 8.144 169.709 7.792 168.973 7.088C168.269 6.384 167.917 5.536 167.917 4.544C167.917 3.52 168.269 2.672 168.973 2C169.709 1.296 170.637 0.943999 171.757 0.943999C172.877 0.943999 173.789 1.28 174.493 1.952C175.229 2.592 175.597 3.408 175.597 4.4C175.597 5.456 175.245 6.352 174.541 7.088C173.837 7.792 172.909 8.144 171.757 8.144ZM190.528 38.336C188.384 38.336 186.32 38.064 184.336 37.52C182.384 36.944 180.832 36.256 179.68 35.456L181.984 30.896C183.136 31.632 184.512 32.24 186.112 32.72C187.712 33.2 189.312 33.44 190.912 33.44C192.8 33.44 194.16 33.184 194.992 32.672C195.856 32.16 196.288 31.472 196.288 30.608C196.288 29.904 196 29.376 195.424 29.024C194.848 28.64 194.096 28.352 193.168 28.16C192.24 27.968 191.2 27.792 190.048 27.632C188.928 27.472 187.792 27.264 186.64 27.008C185.52 26.72 184.496 26.32 183.568 25.808C182.64 25.264 181.888 24.544 181.312 23.648C180.736 22.752 180.448 21.568 180.448 20.096C180.448 18.464 180.912 17.056 181.84 15.872C182.768 14.656 184.064 13.728 185.728 13.088C187.424 12.416 189.424 12.08 191.728 12.08C193.456 12.08 195.2 12.272 196.96 12.656C198.72 13.04 200.176 13.584 201.328 14.288L199.024 18.848C197.808 18.112 196.576 17.616 195.328 17.36C194.112 17.072 192.896 16.928 191.68 16.928C189.856 16.928 188.496 17.2 187.6 17.744C186.736 18.288 186.304 18.976 186.304 19.808C186.304 20.576 186.592 21.152 187.168 21.536C187.744 21.92 188.496 22.224 189.424 22.448C190.352 22.672 191.376 22.864 192.496 23.024C193.648 23.152 194.784 23.36 195.904 23.648C197.024 23.936 198.048 24.336 198.976 24.848C199.936 25.328 200.704 26.016 201.28 26.912C201.856 27.808 202.144 28.976 202.144 30.416C202.144 32.016 201.664 33.408 200.704 34.592C199.776 35.776 198.448 36.704 196.72 37.376C194.992 38.016 192.928 38.336 190.528 38.336Z"
            fill="white" />
</svg>