<svg width="251" height="110" viewBox="0 0 251 110" fill="none" xmlns="http://www.w3.org/2000/svg">
      <path d="M10.104 18.24C8.792 18.24 7.584 18.032 6.48 17.616C5.392 17.184 4.44 16.584 3.624 15.816C2.808 15.032 2.176 14.112 1.728 13.056C1.28 12 1.056 10.848 1.056 9.6C1.056 8.352 1.28 7.2 1.728 6.144C2.176 5.088 2.808 4.176 3.624 3.408C4.456 2.624 5.424 2.024 6.528 1.608C7.632 1.176 8.84 0.959999 10.152 0.959999C11.576 0.959999 12.856 1.192 13.992 1.656C15.144 2.12 16.112 2.8 16.896 3.696L14.928 5.616C14.272 4.96 13.56 4.48 12.792 4.176C12.04 3.856 11.208 3.696 10.296 3.696C9.416 3.696 8.6 3.84 7.848 4.128C7.096 4.416 6.448 4.824 5.904 5.352C5.36 5.88 4.936 6.504 4.632 7.224C4.344 7.944 4.2 8.736 4.2 9.6C4.2 10.448 4.344 11.232 4.632 11.952C4.936 12.672 5.36 13.304 5.904 13.848C6.448 14.376 7.088 14.784 7.824 15.072C8.56 15.36 9.376 15.504 10.272 15.504C11.104 15.504 11.904 15.376 12.672 15.12C13.456 14.848 14.2 14.4 14.904 13.776L16.68 16.104C15.8 16.808 14.776 17.344 13.608 17.712C12.456 18.064 11.288 18.24 10.104 18.24ZM13.728 15.696V9.408H16.68V16.104L13.728 15.696ZM20.5071 18V5.184H23.3631V8.712L23.0271 7.68C23.4111 6.816 24.0111 6.16 24.8271 5.712C25.6591 5.264 26.6911 5.04 27.9231 5.04V7.896C27.7951 7.864 27.6751 7.848 27.5631 7.848C27.4511 7.832 27.3391 7.824 27.2271 7.824C26.0911 7.824 25.1871 8.16 24.5151 8.832C23.8431 9.488 23.5071 10.472 23.5071 11.784V18H20.5071ZM37.4499 18V15.408L37.2819 14.856V10.32C37.2819 9.44 37.0179 8.76 36.4899 8.28C35.9619 7.784 35.1619 7.536 34.0899 7.536C33.3699 7.536 32.6579 7.648 31.9539 7.872C31.2659 8.096 30.6819 8.408 30.2019 8.808L29.0259 6.624C29.7139 6.096 30.5299 5.704 31.4739 5.448C32.4339 5.176 33.4259 5.04 34.4499 5.04C36.3059 5.04 37.7379 5.488 38.7459 6.384C39.7699 7.264 40.2819 8.632 40.2819 10.488V18H37.4499ZM33.4179 18.168C32.4579 18.168 31.6179 18.008 30.8979 17.688C30.1779 17.352 29.6179 16.896 29.2179 16.32C28.8339 15.728 28.6419 15.064 28.6419 14.328C28.6419 13.608 28.8099 12.96 29.1459 12.384C29.4979 11.808 30.0659 11.352 30.8499 11.016C31.6339 10.68 32.6739 10.512 33.9699 10.512H37.6899V12.504H34.1859C33.1619 12.504 32.4739 12.672 32.1219 13.008C31.7699 13.328 31.5939 13.728 31.5939 14.208C31.5939 14.752 31.8099 15.184 32.2419 15.504C32.6739 15.824 33.2739 15.984 34.0419 15.984C34.7779 15.984 35.4339 15.816 36.0099 15.48C36.6019 15.144 37.0259 14.648 37.2819 13.992L37.7859 15.792C37.4979 16.544 36.9779 17.128 36.2259 17.544C35.4899 17.96 34.5539 18.168 33.4179 18.168ZM51.4041 5.04C52.4281 5.04 53.3401 5.24 54.1401 5.64C54.9561 6.04 55.5961 6.656 56.0601 7.488C56.5241 8.304 56.7561 9.36 56.7561 10.656V18H53.7561V11.04C53.7561 9.904 53.4841 9.056 52.9401 8.496C52.4121 7.936 51.6681 7.656 50.7081 7.656C50.0041 7.656 49.3801 7.8 48.8361 8.088C48.2921 8.376 47.8681 8.808 47.5641 9.384C47.2761 9.944 47.1321 10.656 47.1321 11.52V18H44.1321V5.184H46.9881V8.64L46.4841 7.584C46.9321 6.768 47.5801 6.144 48.4281 5.712C49.2921 5.264 50.2841 5.04 51.4041 5.04ZM66.3932 22.824C65.2092 22.824 64.0492 22.664 62.9132 22.344C61.7932 22.04 60.8732 21.592 60.1532 21L61.4972 18.744C62.0572 19.208 62.7612 19.576 63.6092 19.848C64.4732 20.136 65.3452 20.28 66.2252 20.28C67.6332 20.28 68.6652 19.952 69.3212 19.296C69.9772 18.656 70.3052 17.688 70.3052 16.392V14.112L70.5452 11.208L70.4492 8.304V5.184H73.3052V16.056C73.3052 18.376 72.7132 20.08 71.5292 21.168C70.3452 22.272 68.6332 22.824 66.3932 22.824ZM66.0092 17.424C64.7932 17.424 63.6892 17.168 62.6972 16.656C61.7212 16.128 60.9452 15.4 60.3692 14.472C59.8092 13.544 59.5292 12.456 59.5292 11.208C59.5292 9.976 59.8092 8.896 60.3692 7.968C60.9452 7.04 61.7212 6.32 62.6972 5.808C63.6892 5.296 64.7932 5.04 66.0092 5.04C67.0972 5.04 68.0732 5.256 68.9372 5.688C69.8012 6.12 70.4892 6.792 71.0012 7.704C71.5292 8.616 71.7932 9.784 71.7932 11.208C71.7932 12.632 71.5292 13.808 71.0012 14.736C70.4892 15.648 69.8012 16.328 68.9372 16.776C68.0732 17.208 67.0972 17.424 66.0092 17.424ZM66.4652 14.88C67.2172 14.88 67.8892 14.728 68.4812 14.424C69.0732 14.104 69.5292 13.672 69.8492 13.128C70.1852 12.568 70.3532 11.928 70.3532 11.208C70.3532 10.488 70.1852 9.856 69.8492 9.312C69.5292 8.752 69.0732 8.328 68.4812 8.04C67.8892 7.736 67.2172 7.584 66.4652 7.584C65.7132 7.584 65.0332 7.736 64.4252 8.04C63.8332 8.328 63.3692 8.752 63.0332 9.312C62.7132 9.856 62.5532 10.488 62.5532 11.208C62.5532 11.928 62.7132 12.568 63.0332 13.128C63.3692 13.672 63.8332 14.104 64.4252 14.424C65.0332 14.728 65.7132 14.88 66.4652 14.88ZM83.2733 18.168C81.8493 18.168 80.6013 17.888 79.5293 17.328C78.4733 16.752 77.6493 15.968 77.0573 14.976C76.4813 13.984 76.1933 12.856 76.1933 11.592C76.1933 10.312 76.4733 9.184 77.0333 8.208C77.6093 7.216 78.3933 6.44 79.3853 5.88C80.3933 5.32 81.5373 5.04 82.8173 5.04C84.0653 5.04 85.1773 5.312 86.1533 5.856C87.1293 6.4 87.8973 7.168 88.4573 8.16C89.0173 9.152 89.2973 10.32 89.2973 11.664C89.2973 11.792 89.2893 11.936 89.2733 12.096C89.2733 12.256 89.2653 12.408 89.2493 12.552H78.5693V10.56H87.6653L86.4893 11.184C86.5053 10.448 86.3533 9.8 86.0333 9.24C85.7133 8.68 85.2733 8.24 84.7133 7.92C84.1693 7.6 83.5373 7.44 82.8173 7.44C82.0813 7.44 81.4333 7.6 80.8733 7.92C80.3293 8.24 79.8973 8.688 79.5773 9.264C79.2733 9.824 79.1213 10.488 79.1213 11.256V11.736C79.1213 12.504 79.2973 13.184 79.6493 13.776C80.0013 14.368 80.4973 14.824 81.1373 15.144C81.7773 15.464 82.5133 15.624 83.3453 15.624C84.0653 15.624 84.7133 15.512 85.2893 15.288C85.8653 15.064 86.3773 14.712 86.8253 14.232L88.4333 16.08C87.8573 16.752 87.1293 17.272 86.2493 17.64C85.3853 17.992 84.3933 18.168 83.2733 18.168ZM91.3869 21.624L92.7789 16.32L93.1869 18.096C92.6269 18.096 92.1549 17.928 91.7709 17.592C91.4029 17.24 91.2189 16.768 91.2189 16.176C91.2189 15.568 91.4029 15.088 91.7709 14.736C92.1549 14.368 92.6189 14.184 93.1629 14.184C93.7229 14.184 94.1869 14.368 94.5549 14.736C94.9229 15.104 95.1069 15.584 95.1069 16.176C95.1069 16.336 95.0909 16.512 95.0589 16.704C95.0269 16.88 94.9709 17.088 94.8909 17.328C94.8269 17.568 94.7149 17.872 94.5549 18.24L93.3309 21.624H91.3869ZM110.095 18.168C109.007 18.168 108.047 17.968 107.215 17.568C106.383 17.152 105.735 16.528 105.271 15.696C104.807 14.848 104.575 13.784 104.575 12.504V5.184H107.575V12.096C107.575 13.248 107.831 14.112 108.343 14.688C108.871 15.248 109.615 15.528 110.575 15.528C111.279 15.528 111.887 15.384 112.399 15.096C112.927 14.808 113.335 14.376 113.623 13.8C113.927 13.224 114.079 12.512 114.079 11.664V5.184H117.079V18H114.223V14.544L114.727 15.6C114.295 16.432 113.663 17.072 112.831 17.52C111.999 17.952 111.087 18.168 110.095 18.168ZM128.279 5.04C129.303 5.04 130.215 5.24 131.015 5.64C131.831 6.04 132.471 6.656 132.935 7.488C133.399 8.304 133.631 9.36 133.631 10.656V18H130.631V11.04C130.631 9.904 130.359 9.056 129.815 8.496C129.287 7.936 128.543 7.656 127.583 7.656C126.879 7.656 126.255 7.8 125.711 8.088C125.167 8.376 124.743 8.808 124.439 9.384C124.151 9.944 124.007 10.656 124.007 11.52V18H121.007V5.184H123.863V8.64L123.359 7.584C123.807 6.768 124.455 6.144 125.303 5.712C126.167 5.264 127.159 5.04 128.279 5.04ZM142.861 18.168C141.773 18.168 140.813 17.968 139.981 17.568C139.149 17.152 138.501 16.528 138.037 15.696C137.573 14.848 137.341 13.784 137.341 12.504V5.184H140.341V12.096C140.341 13.248 140.597 14.112 141.109 14.688C141.637 15.248 142.381 15.528 143.341 15.528C144.045 15.528 144.653 15.384 145.165 15.096C145.693 14.808 146.101 14.376 146.389 13.8C146.693 13.224 146.845 12.512 146.845 11.664V5.184H149.845V18H146.989V14.544L147.493 15.6C147.061 16.432 146.429 17.072 145.597 17.52C144.765 17.952 143.853 18.168 142.861 18.168ZM157.733 18.168C156.661 18.168 155.629 18.032 154.637 17.76C153.661 17.472 152.885 17.128 152.309 16.728L153.461 14.448C154.037 14.816 154.725 15.12 155.525 15.36C156.325 15.6 157.125 15.72 157.925 15.72C158.869 15.72 159.549 15.592 159.965 15.336C160.397 15.08 160.613 14.736 160.613 14.304C160.613 13.952 160.469 13.688 160.181 13.512C159.893 13.32 159.517 13.176 159.053 13.08C158.589 12.984 158.069 12.896 157.493 12.816C156.933 12.736 156.365 12.632 155.789 12.504C155.229 12.36 154.717 12.16 154.253 11.904C153.789 11.632 153.413 11.272 153.125 10.824C152.837 10.376 152.693 9.784 152.693 9.048C152.693 8.232 152.925 7.528 153.389 6.936C153.853 6.328 154.501 5.864 155.333 5.544C156.181 5.208 157.181 5.04 158.333 5.04C159.197 5.04 160.069 5.136 160.949 5.328C161.829 5.52 162.557 5.792 163.133 6.144L161.981 8.424C161.373 8.056 160.757 7.808 160.133 7.68C159.525 7.536 158.917 7.464 158.309 7.464C157.397 7.464 156.717 7.6 156.269 7.872C155.837 8.144 155.621 8.488 155.621 8.904C155.621 9.288 155.765 9.576 156.053 9.768C156.341 9.96 156.717 10.112 157.181 10.224C157.645 10.336 158.157 10.432 158.717 10.512C159.293 10.576 159.861 10.68 160.421 10.824C160.981 10.968 161.493 11.168 161.957 11.424C162.437 11.664 162.821 12.008 163.109 12.456C163.397 12.904 163.541 13.488 163.541 14.208C163.541 15.008 163.301 15.704 162.821 16.296C162.357 16.888 161.693 17.352 160.829 17.688C159.965 18.008 158.933 18.168 157.733 18.168ZM171.548 18.168C170.46 18.168 169.5 17.968 168.668 17.568C167.836 17.152 167.188 16.528 166.724 15.696C166.26 14.848 166.028 13.784 166.028 12.504V5.184H169.028V12.096C169.028 13.248 169.284 14.112 169.796 14.688C170.324 15.248 171.068 15.528 172.028 15.528C172.732 15.528 173.34 15.384 173.852 15.096C174.38 14.808 174.788 14.376 175.076 13.8C175.38 13.224 175.532 12.512 175.532 11.664V5.184H178.532V18H175.676V14.544L176.18 15.6C175.748 16.432 175.116 17.072 174.284 17.52C173.452 17.952 172.54 18.168 171.548 18.168ZM190.356 18V15.408L190.188 14.856V10.32C190.188 9.44 189.924 8.76 189.396 8.28C188.868 7.784 188.068 7.536 186.996 7.536C186.276 7.536 185.564 7.648 184.86 7.872C184.172 8.096 183.588 8.408 183.108 8.808L181.932 6.624C182.62 6.096 183.436 5.704 184.38 5.448C185.34 5.176 186.332 5.04 187.356 5.04C189.212 5.04 190.644 5.488 191.652 6.384C192.676 7.264 193.188 8.632 193.188 10.488V18H190.356ZM186.324 18.168C185.364 18.168 184.524 18.008 183.804 17.688C183.084 17.352 182.524 16.896 182.124 16.32C181.74 15.728 181.548 15.064 181.548 14.328C181.548 13.608 181.716 12.96 182.052 12.384C182.404 11.808 182.972 11.352 183.756 11.016C184.54 10.68 185.58 10.512 186.876 10.512H190.596V12.504H187.092C186.068 12.504 185.38 12.672 185.028 13.008C184.676 13.328 184.5 13.728 184.5 14.208C184.5 14.752 184.716 15.184 185.148 15.504C185.58 15.824 186.18 15.984 186.948 15.984C187.684 15.984 188.34 15.816 188.916 15.48C189.508 15.144 189.932 14.648 190.188 13.992L190.692 15.792C190.404 16.544 189.884 17.128 189.132 17.544C188.396 17.96 187.46 18.168 186.324 18.168ZM197.038 18V0.191999H200.038V18H197.038ZM9.072 47.168C8.032 47.168 7.08 46.928 6.216 46.448C5.368 45.968 4.688 45.248 4.176 44.288C3.68 43.312 3.432 42.08 3.432 40.592C3.432 39.088 3.672 37.856 4.152 36.896C4.648 35.936 5.32 35.224 6.168 34.76C7.016 34.28 7.984 34.04 9.072 34.04C10.336 34.04 11.448 34.312 12.408 34.856C13.384 35.4 14.152 36.16 14.712 37.136C15.288 38.112 15.576 39.264 15.576 40.592C15.576 41.92 15.288 43.08 14.712 44.072C14.152 45.048 13.384 45.808 12.408 46.352C11.448 46.896 10.336 47.168 9.072 47.168ZM1.968 51.656V34.184H4.824V37.208L4.728 40.616L4.968 44.024V51.656H1.968ZM8.736 44.6C9.456 44.6 10.096 44.44 10.656 44.12C11.232 43.8 11.688 43.336 12.024 42.728C12.36 42.12 12.528 41.408 12.528 40.592C12.528 39.76 12.36 39.048 12.024 38.456C11.688 37.848 11.232 37.384 10.656 37.064C10.096 36.744 9.456 36.584 8.736 36.584C8.016 36.584 7.368 36.744 6.792 37.064C6.216 37.384 5.76 37.848 5.424 38.456C5.088 39.048 4.92 39.76 4.92 40.592C4.92 41.408 5.088 42.12 5.424 42.728C5.76 43.336 6.216 43.8 6.792 44.12C7.368 44.44 8.016 44.6 8.736 44.6ZM18.4211 47V34.184H21.2771V37.712L20.9411 36.68C21.3251 35.816 21.9251 35.16 22.7411 34.712C23.5731 34.264 24.6051 34.04 25.8371 34.04V36.896C25.7091 36.864 25.5891 36.848 25.4771 36.848C25.3651 36.832 25.2531 36.824 25.1411 36.824C24.0051 36.824 23.1011 37.16 22.4291 37.832C21.7571 38.488 21.4211 39.472 21.4211 40.784V47H18.4211ZM34.0249 47.168C32.7129 47.168 31.5449 46.888 30.5209 46.328C29.4969 45.752 28.6889 44.968 28.0969 43.976C27.5049 42.984 27.2089 41.856 27.2089 40.592C27.2089 39.312 27.5049 38.184 28.0969 37.208C28.6889 36.216 29.4969 35.44 30.5209 34.88C31.5449 34.32 32.7129 34.04 34.0249 34.04C35.3529 34.04 36.5289 34.32 37.5529 34.88C38.5929 35.44 39.4009 36.208 39.9769 37.184C40.5689 38.16 40.8649 39.296 40.8649 40.592C40.8649 41.856 40.5689 42.984 39.9769 43.976C39.4009 44.968 38.5929 45.752 37.5529 46.328C36.5289 46.888 35.3529 47.168 34.0249 47.168ZM34.0249 44.6C34.7609 44.6 35.4169 44.44 35.9929 44.12C36.5689 43.8 37.0169 43.336 37.3369 42.728C37.6729 42.12 37.8409 41.408 37.8409 40.592C37.8409 39.76 37.6729 39.048 37.3369 38.456C37.0169 37.848 36.5689 37.384 35.9929 37.064C35.4169 36.744 34.7689 36.584 34.0489 36.584C33.3129 36.584 32.6569 36.744 32.0809 37.064C31.5209 37.384 31.0729 37.848 30.7369 38.456C30.4009 39.048 30.2329 39.76 30.2329 40.592C30.2329 41.408 30.4009 42.12 30.7369 42.728C31.0729 43.336 31.5209 43.8 32.0809 44.12C32.6569 44.44 33.3049 44.6 34.0249 44.6ZM49.6136 47.168C48.2696 47.168 47.0696 46.888 46.0136 46.328C44.9736 45.752 44.1576 44.968 43.5656 43.976C42.9736 42.984 42.6776 41.856 42.6776 40.592C42.6776 39.312 42.9736 38.184 43.5656 37.208C44.1576 36.216 44.9736 35.44 46.0136 34.88C47.0696 34.32 48.2696 34.04 49.6136 34.04C50.8616 34.04 51.9576 34.296 52.9016 34.808C53.8616 35.304 54.5896 36.04 55.0856 37.016L52.7816 38.36C52.3976 37.752 51.9256 37.304 51.3656 37.016C50.8216 36.728 50.2296 36.584 49.5896 36.584C48.8536 36.584 48.1896 36.744 47.5976 37.064C47.0056 37.384 46.5416 37.848 46.2056 38.456C45.8696 39.048 45.7016 39.76 45.7016 40.592C45.7016 41.424 45.8696 42.144 46.2056 42.752C46.5416 43.344 47.0056 43.8 47.5976 44.12C48.1896 44.44 48.8536 44.6 49.5896 44.6C50.2296 44.6 50.8216 44.456 51.3656 44.168C51.9256 43.88 52.3976 43.432 52.7816 42.824L55.0856 44.168C54.5896 45.128 53.8616 45.872 52.9016 46.4C51.9576 46.912 50.8616 47.168 49.6136 47.168ZM63.5154 47.168C62.0914 47.168 60.8434 46.888 59.7714 46.328C58.7154 45.752 57.8914 44.968 57.2994 43.976C56.7234 42.984 56.4354 41.856 56.4354 40.592C56.4354 39.312 56.7154 38.184 57.2754 37.208C57.8514 36.216 58.6354 35.44 59.6274 34.88C60.6354 34.32 61.7794 34.04 63.0594 34.04C64.3074 34.04 65.4194 34.312 66.3954 34.856C67.3714 35.4 68.1394 36.168 68.6994 37.16C69.2594 38.152 69.5394 39.32 69.5394 40.664C69.5394 40.792 69.5314 40.936 69.5154 41.096C69.5154 41.256 69.5074 41.408 69.4914 41.552H58.8114V39.56H67.9074L66.7314 40.184C66.7474 39.448 66.5954 38.8 66.2754 38.24C65.9554 37.68 65.5154 37.24 64.9554 36.92C64.4114 36.6 63.7794 36.44 63.0594 36.44C62.3234 36.44 61.6754 36.6 61.1154 36.92C60.5714 37.24 60.1394 37.688 59.8194 38.264C59.5154 38.824 59.3634 39.488 59.3634 40.256V40.736C59.3634 41.504 59.5394 42.184 59.8914 42.776C60.2434 43.368 60.7394 43.824 61.3794 44.144C62.0194 44.464 62.7554 44.624 63.5874 44.624C64.3074 44.624 64.9554 44.512 65.5314 44.288C66.1074 44.064 66.6194 43.712 67.0674 43.232L68.6754 45.08C68.0994 45.752 67.3714 46.272 66.4914 46.64C65.6274 46.992 64.6354 47.168 63.5154 47.168ZM76.3811 47.168C75.3091 47.168 74.2771 47.032 73.2851 46.76C72.3091 46.472 71.5331 46.128 70.9571 45.728L72.1091 43.448C72.6851 43.816 73.3731 44.12 74.1731 44.36C74.9731 44.6 75.7731 44.72 76.5731 44.72C77.5171 44.72 78.1971 44.592 78.6131 44.336C79.0451 44.08 79.2611 43.736 79.2611 43.304C79.2611 42.952 79.1171 42.688 78.8291 42.512C78.5411 42.32 78.1651 42.176 77.7011 42.08C77.2371 41.984 76.7171 41.896 76.1411 41.816C75.5811 41.736 75.0131 41.632 74.4371 41.504C73.8771 41.36 73.3651 41.16 72.9011 40.904C72.4371 40.632 72.0611 40.272 71.7731 39.824C71.4851 39.376 71.3411 38.784 71.3411 38.048C71.3411 37.232 71.5731 36.528 72.0371 35.936C72.5011 35.328 73.1491 34.864 73.9811 34.544C74.8291 34.208 75.8291 34.04 76.9811 34.04C77.8451 34.04 78.7171 34.136 79.5971 34.328C80.4771 34.52 81.2051 34.792 81.7811 35.144L80.6291 37.424C80.0211 37.056 79.4051 36.808 78.7811 36.68C78.1731 36.536 77.5651 36.464 76.9571 36.464C76.0451 36.464 75.3651 36.6 74.9171 36.872C74.4851 37.144 74.2691 37.488 74.2691 37.904C74.2691 38.288 74.4131 38.576 74.7011 38.768C74.9891 38.96 75.3651 39.112 75.8291 39.224C76.2931 39.336 76.8051 39.432 77.3651 39.512C77.9411 39.576 78.5091 39.68 79.0691 39.824C79.6291 39.968 80.1411 40.168 80.6051 40.424C81.0851 40.664 81.4691 41.008 81.7571 41.456C82.0451 41.904 82.1891 42.488 82.1891 43.208C82.1891 44.008 81.9491 44.704 81.4691 45.296C81.0051 45.888 80.3411 46.352 79.4771 46.688C78.6131 47.008 77.5811 47.168 76.3811 47.168ZM88.7327 47.168C87.6607 47.168 86.6287 47.032 85.6367 46.76C84.6607 46.472 83.8847 46.128 83.3087 45.728L84.4607 43.448C85.0367 43.816 85.7247 44.12 86.5247 44.36C87.3247 44.6 88.1247 44.72 88.9247 44.72C89.8687 44.72 90.5487 44.592 90.9647 44.336C91.3967 44.08 91.6127 43.736 91.6127 43.304C91.6127 42.952 91.4687 42.688 91.1807 42.512C90.8927 42.32 90.5167 42.176 90.0527 42.08C89.5887 41.984 89.0687 41.896 88.4927 41.816C87.9327 41.736 87.3647 41.632 86.7887 41.504C86.2287 41.36 85.7167 41.16 85.2527 40.904C84.7887 40.632 84.4127 40.272 84.1247 39.824C83.8367 39.376 83.6927 38.784 83.6927 38.048C83.6927 37.232 83.9247 36.528 84.3887 35.936C84.8527 35.328 85.5007 34.864 86.3327 34.544C87.1807 34.208 88.1807 34.04 89.3327 34.04C90.1967 34.04 91.0687 34.136 91.9487 34.328C92.8287 34.52 93.5567 34.792 94.1327 35.144L92.9807 37.424C92.3727 37.056 91.7567 36.808 91.1327 36.68C90.5247 36.536 89.9167 36.464 89.3087 36.464C88.3967 36.464 87.7167 36.6 87.2687 36.872C86.8367 37.144 86.6207 37.488 86.6207 37.904C86.6207 38.288 86.7647 38.576 87.0527 38.768C87.3407 38.96 87.7167 39.112 88.1807 39.224C88.6447 39.336 89.1567 39.432 89.7167 39.512C90.2927 39.576 90.8607 39.68 91.4207 39.824C91.9807 39.968 92.4927 40.168 92.9567 40.424C93.4367 40.664 93.8207 41.008 94.1087 41.456C94.3967 41.904 94.5407 42.488 94.5407 43.208C94.5407 44.008 94.3007 44.704 93.8207 45.296C93.3567 45.888 92.6927 46.352 91.8287 46.688C90.9647 47.008 89.9327 47.168 88.7327 47.168ZM97.1243 47V34.184H100.124V47H97.1243ZM98.6363 32.072C98.0763 32.072 97.6123 31.896 97.2443 31.544C96.8923 31.192 96.7163 30.768 96.7163 30.272C96.7163 29.76 96.8923 29.336 97.2443 29C97.6123 28.648 98.0763 28.472 98.6363 28.472C99.1963 28.472 99.6523 28.64 100.004 28.976C100.372 29.296 100.556 29.704 100.556 30.2C100.556 30.728 100.38 31.176 100.028 31.544C99.6763 31.896 99.2123 32.072 98.6363 32.072ZM111.334 34.04C112.358 34.04 113.27 34.24 114.07 34.64C114.886 35.04 115.526 35.656 115.99 36.488C116.454 37.304 116.686 38.36 116.686 39.656V47H113.686V40.04C113.686 38.904 113.414 38.056 112.87 37.496C112.342 36.936 111.598 36.656 110.638 36.656C109.934 36.656 109.31 36.8 108.766 37.088C108.222 37.376 107.798 37.808 107.494 38.384C107.206 38.944 107.062 39.656 107.062 40.52V47H104.062V34.184H106.918V37.64L106.414 36.584C106.862 35.768 107.51 35.144 108.358 34.712C109.222 34.264 110.214 34.04 111.334 34.04ZM126.323 51.824C125.139 51.824 123.979 51.664 122.843 51.344C121.723 51.04 120.803 50.592 120.083 50L121.427 47.744C121.987 48.208 122.691 48.576 123.539 48.848C124.403 49.136 125.275 49.28 126.155 49.28C127.563 49.28 128.595 48.952 129.251 48.296C129.907 47.656 130.235 46.688 130.235 45.392V43.112L130.475 40.208L130.379 37.304V34.184H133.235V45.056C133.235 47.376 132.643 49.08 131.459 50.168C130.275 51.272 128.563 51.824 126.323 51.824ZM125.939 46.424C124.723 46.424 123.619 46.168 122.627 45.656C121.651 45.128 120.875 44.4 120.299 43.472C119.739 42.544 119.459 41.456 119.459 40.208C119.459 38.976 119.739 37.896 120.299 36.968C120.875 36.04 121.651 35.32 122.627 34.808C123.619 34.296 124.723 34.04 125.939 34.04C127.027 34.04 128.003 34.256 128.867 34.688C129.731 35.12 130.419 35.792 130.931 36.704C131.459 37.616 131.723 38.784 131.723 40.208C131.723 41.632 131.459 42.808 130.931 43.736C130.419 44.648 129.731 45.328 128.867 45.776C128.003 46.208 127.027 46.424 125.939 46.424ZM126.395 43.88C127.147 43.88 127.819 43.728 128.411 43.424C129.003 43.104 129.459 42.672 129.779 42.128C130.115 41.568 130.283 40.928 130.283 40.208C130.283 39.488 130.115 38.856 129.779 38.312C129.459 37.752 129.003 37.328 128.411 37.04C127.819 36.736 127.147 36.584 126.395 36.584C125.643 36.584 124.963 36.736 124.355 37.04C123.763 37.328 123.299 37.752 122.963 38.312C122.643 38.856 122.483 39.488 122.483 40.208C122.483 40.928 122.643 41.568 122.963 42.128C123.299 42.672 123.763 43.104 124.355 43.424C124.963 43.728 125.643 43.88 126.395 43.88ZM136.387 50.624L137.779 45.32L138.187 47.096C137.627 47.096 137.155 46.928 136.771 46.592C136.403 46.24 136.219 45.768 136.219 45.176C136.219 44.568 136.403 44.088 136.771 43.736C137.155 43.368 137.619 43.184 138.163 43.184C138.723 43.184 139.187 43.368 139.555 43.736C139.923 44.104 140.107 44.584 140.107 45.176C140.107 45.336 140.091 45.512 140.059 45.704C140.027 45.88 139.971 46.088 139.891 46.328C139.827 46.568 139.715 46.872 139.555 47.24L138.331 50.624H136.387ZM156.943 34.04C157.967 34.04 158.879 34.24 159.679 34.64C160.495 35.04 161.135 35.656 161.599 36.488C162.063 37.304 162.295 38.36 162.295 39.656V47H159.295V40.04C159.295 38.904 159.023 38.056 158.479 37.496C157.951 36.936 157.207 36.656 156.247 36.656C155.543 36.656 154.919 36.8 154.375 37.088C153.831 37.376 153.407 37.808 153.103 38.384C152.815 38.944 152.671 39.656 152.671 40.52V47H149.671V34.184H152.527V37.64L152.023 36.584C152.471 35.768 153.119 35.144 153.967 34.712C154.831 34.264 155.823 34.04 156.943 34.04ZM172.148 47.168C170.724 47.168 169.476 46.888 168.404 46.328C167.348 45.752 166.524 44.968 165.932 43.976C165.356 42.984 165.068 41.856 165.068 40.592C165.068 39.312 165.348 38.184 165.908 37.208C166.484 36.216 167.268 35.44 168.26 34.88C169.268 34.32 170.412 34.04 171.692 34.04C172.94 34.04 174.052 34.312 175.028 34.856C176.004 35.4 176.772 36.168 177.332 37.16C177.892 38.152 178.172 39.32 178.172 40.664C178.172 40.792 178.164 40.936 178.148 41.096C178.148 41.256 178.14 41.408 178.124 41.552H167.444V39.56H176.54L175.364 40.184C175.38 39.448 175.228 38.8 174.908 38.24C174.588 37.68 174.148 37.24 173.588 36.92C173.044 36.6 172.412 36.44 171.692 36.44C170.956 36.44 170.308 36.6 169.748 36.92C169.204 37.24 168.772 37.688 168.452 38.264C168.148 38.824 167.996 39.488 167.996 40.256V40.736C167.996 41.504 168.172 42.184 168.524 42.776C168.876 43.368 169.372 43.824 170.012 44.144C170.652 44.464 171.388 44.624 172.22 44.624C172.94 44.624 173.588 44.512 174.164 44.288C174.74 44.064 175.252 43.712 175.7 43.232L177.308 45.08C176.732 45.752 176.004 46.272 175.124 46.64C174.26 46.992 173.268 47.168 172.148 47.168ZM183.652 47L178.948 34.184H181.78L185.812 45.488H184.468L188.692 34.184H191.212L195.316 45.488H193.996L198.148 34.184H200.812L196.084 47H193.204L189.46 36.992H190.348L186.532 47H183.652ZM2.376 76V62.464C2.376 61.12 2.768 60.048 3.552 59.248C4.352 58.432 5.488 58.024 6.96 58.024C7.488 58.024 7.984 58.08 8.448 58.192C8.928 58.304 9.328 58.48 9.648 58.72L8.832 60.976C8.608 60.8 8.352 60.672 8.064 60.592C7.776 60.496 7.48 60.448 7.176 60.448C6.552 60.448 6.08 60.624 5.76 60.976C5.44 61.312 5.28 61.824 5.28 62.512V63.952L5.376 65.296V76H2.376ZM0.264 65.68V63.28H8.808V65.68H0.264ZM10.92 76V63.184H13.92V76H10.92ZM12.432 61.072C11.872 61.072 11.408 60.896 11.04 60.544C10.688 60.192 10.512 59.768 10.512 59.272C10.512 58.76 10.688 58.336 11.04 58C11.408 57.648 11.872 57.472 12.432 57.472C12.992 57.472 13.448 57.64 13.8 57.976C14.168 58.296 14.352 58.704 14.352 59.2C14.352 59.728 14.176 60.176 13.824 60.544C13.472 60.896 13.008 61.072 12.432 61.072ZM17.8586 76V58.192H20.8586V76H17.8586ZM30.2529 76.168C28.8449 76.168 27.7569 75.808 26.9889 75.088C26.2209 74.352 25.8369 73.272 25.8369 71.848V60.352H28.8369V71.776C28.8369 72.384 28.9889 72.856 29.2929 73.192C29.6129 73.528 30.0529 73.696 30.6129 73.696C31.2849 73.696 31.8449 73.52 32.2929 73.168L33.1329 75.304C32.7809 75.592 32.3489 75.808 31.8369 75.952C31.3249 76.096 30.7969 76.168 30.2529 76.168ZM23.7249 65.68V63.28H32.2689V65.68H23.7249ZM41.2029 76.168C39.7789 76.168 38.5309 75.888 37.4589 75.328C36.4029 74.752 35.5789 73.968 34.9869 72.976C34.4109 71.984 34.1229 70.856 34.1229 69.592C34.1229 68.312 34.4029 67.184 34.9629 66.208C35.5389 65.216 36.3229 64.44 37.3149 63.88C38.3229 63.32 39.4669 63.04 40.7469 63.04C41.9949 63.04 43.1069 63.312 44.0829 63.856C45.0589 64.4 45.8269 65.168 46.3869 66.16C46.9469 67.152 47.2269 68.32 47.2269 69.664C47.2269 69.792 47.2189 69.936 47.2029 70.096C47.2029 70.256 47.1949 70.408 47.1789 70.552H36.4989V68.56H45.5949L44.4189 69.184C44.4349 68.448 44.2829 67.8 43.9629 67.24C43.6429 66.68 43.2029 66.24 42.6429 65.92C42.0989 65.6 41.4669 65.44 40.7469 65.44C40.0109 65.44 39.3629 65.6 38.8029 65.92C38.2589 66.24 37.8269 66.688 37.5069 67.264C37.2029 67.824 37.0509 68.488 37.0509 69.256V69.736C37.0509 70.504 37.2269 71.184 37.5789 71.776C37.9309 72.368 38.4269 72.824 39.0669 73.144C39.7069 73.464 40.4429 73.624 41.2749 73.624C41.9949 73.624 42.6429 73.512 43.2189 73.288C43.7949 73.064 44.3069 72.712 44.7549 72.232L46.3629 74.08C45.7869 74.752 45.0589 75.272 44.1789 75.64C43.3149 75.992 42.3229 76.168 41.2029 76.168ZM50.1086 76V63.184H52.9646V66.712L52.6286 65.68C53.0126 64.816 53.6126 64.16 54.4286 63.712C55.2606 63.264 56.2926 63.04 57.5246 63.04V65.896C57.3966 65.864 57.2766 65.848 57.1646 65.848C57.0526 65.832 56.9406 65.824 56.8286 65.824C55.6926 65.824 54.7886 66.16 54.1166 66.832C53.4446 67.488 53.1086 68.472 53.1086 69.784V76H50.1086ZM64.1468 76.168C63.0748 76.168 62.0428 76.032 61.0508 75.76C60.0748 75.472 59.2988 75.128 58.7228 74.728L59.8748 72.448C60.4508 72.816 61.1388 73.12 61.9388 73.36C62.7388 73.6 63.5388 73.72 64.3388 73.72C65.2828 73.72 65.9628 73.592 66.3788 73.336C66.8108 73.08 67.0268 72.736 67.0268 72.304C67.0268 71.952 66.8828 71.688 66.5948 71.512C66.3068 71.32 65.9308 71.176 65.4668 71.08C65.0028 70.984 64.4828 70.896 63.9068 70.816C63.3468 70.736 62.7788 70.632 62.2028 70.504C61.6428 70.36 61.1308 70.16 60.6668 69.904C60.2028 69.632 59.8268 69.272 59.5388 68.824C59.2508 68.376 59.1068 67.784 59.1068 67.048C59.1068 66.232 59.3388 65.528 59.8027 64.936C60.2668 64.328 60.9148 63.864 61.7467 63.544C62.5948 63.208 63.5948 63.04 64.7468 63.04C65.6108 63.04 66.4828 63.136 67.3628 63.328C68.2428 63.52 68.9708 63.792 69.5468 64.144L68.3948 66.424C67.7868 66.056 67.1708 65.808 66.5468 65.68C65.9388 65.536 65.3308 65.464 64.7228 65.464C63.8108 65.464 63.1308 65.6 62.6828 65.872C62.2508 66.144 62.0348 66.488 62.0348 66.904C62.0348 67.288 62.1788 67.576 62.4668 67.768C62.7548 67.96 63.1308 68.112 63.5948 68.224C64.0588 68.336 64.5708 68.432 65.1308 68.512C65.7068 68.576 66.2748 68.68 66.8348 68.824C67.3948 68.968 67.9068 69.168 68.3708 69.424C68.8508 69.664 69.2348 70.008 69.5228 70.456C69.8108 70.904 69.9548 71.488 69.9548 72.208C69.9548 73.008 69.7148 73.704 69.2348 74.296C68.7708 74.888 68.1068 75.352 67.2428 75.688C66.3788 76.008 65.3468 76.168 64.1468 76.168ZM71.7463 79.624L73.1383 74.32L73.5463 76.096C72.9863 76.096 72.5143 75.928 72.1303 75.592C71.7623 75.24 71.5783 74.768 71.5783 74.176C71.5783 73.568 71.7623 73.088 72.1303 72.736C72.5143 72.368 72.9783 72.184 73.5223 72.184C74.0823 72.184 74.5463 72.368 74.9143 72.736C75.2823 73.104 75.4663 73.584 75.4663 74.176C75.4663 74.336 75.4503 74.512 75.4183 74.704C75.3863 74.88 75.3303 75.088 75.2503 75.328C75.1863 75.568 75.0743 75.872 74.9143 76.24L73.6903 79.624H71.7463ZM88.9905 76.168C87.9185 76.168 86.8865 76.032 85.8945 75.76C84.9185 75.472 84.1425 75.128 83.5665 74.728L84.7185 72.448C85.2945 72.816 85.9825 73.12 86.7825 73.36C87.5825 73.6 88.3825 73.72 89.1825 73.72C90.1265 73.72 90.8065 73.592 91.2225 73.336C91.6545 73.08 91.8705 72.736 91.8705 72.304C91.8705 71.952 91.7265 71.688 91.4385 71.512C91.1505 71.32 90.7745 71.176 90.3105 71.08C89.8465 70.984 89.3265 70.896 88.7505 70.816C88.1905 70.736 87.6225 70.632 87.0465 70.504C86.4865 70.36 85.9745 70.16 85.5105 69.904C85.0465 69.632 84.6705 69.272 84.3825 68.824C84.0945 68.376 83.9505 67.784 83.9505 67.048C83.9505 66.232 84.1825 65.528 84.6465 64.936C85.1105 64.328 85.7585 63.864 86.5905 63.544C87.4385 63.208 88.4385 63.04 89.5905 63.04C90.4545 63.04 91.3265 63.136 92.2065 63.328C93.0865 63.52 93.8145 63.792 94.3905 64.144L93.2385 66.424C92.6305 66.056 92.0145 65.808 91.3905 65.68C90.7825 65.536 90.1745 65.464 89.5665 65.464C88.6545 65.464 87.9745 65.6 87.5265 65.872C87.0945 66.144 86.8785 66.488 86.8785 66.904C86.8785 67.288 87.0225 67.576 87.3105 67.768C87.5985 67.96 87.9745 68.112 88.4385 68.224C88.9025 68.336 89.4145 68.432 89.9745 68.512C90.5505 68.576 91.1185 68.68 91.6785 68.824C92.2385 68.968 92.7505 69.168 93.2145 69.424C93.6945 69.664 94.0785 70.008 94.3665 70.456C94.6545 70.904 94.7985 71.488 94.7985 72.208C94.7985 73.008 94.5585 73.704 94.0785 74.296C93.6145 74.888 92.9505 75.352 92.0865 75.688C91.2225 76.008 90.1905 76.168 88.9905 76.168ZM102.206 76.168C100.798 76.168 99.7101 75.808 98.9421 75.088C98.1741 74.352 97.7901 73.272 97.7901 71.848V60.352H100.79V71.776C100.79 72.384 100.942 72.856 101.246 73.192C101.566 73.528 102.006 73.696 102.566 73.696C103.238 73.696 103.798 73.52 104.246 73.168L105.086 75.304C104.734 75.592 104.302 75.808 103.79 75.952C103.278 76.096 102.75 76.168 102.206 76.168ZM95.6781 65.68V63.28H104.222V65.68H95.6781ZM112.978 76.168C111.89 76.168 110.93 75.968 110.098 75.568C109.266 75.152 108.618 74.528 108.154 73.696C107.69 72.848 107.458 71.784 107.458 70.504V63.184H110.458V70.096C110.458 71.248 110.714 72.112 111.226 72.688C111.754 73.248 112.498 73.528 113.458 73.528C114.162 73.528 114.77 73.384 115.282 73.096C115.81 72.808 116.218 72.376 116.506 71.8C116.81 71.224 116.962 70.512 116.962 69.664V63.184H119.962V76H117.106V72.544L117.61 73.6C117.178 74.432 116.546 75.072 115.714 75.52C114.882 75.952 113.97 76.168 112.978 76.168ZM129.314 76.168C128.082 76.168 126.97 75.896 125.978 75.352C125.002 74.792 124.234 74.024 123.674 73.048C123.114 72.072 122.834 70.92 122.834 69.592C122.834 68.264 123.114 67.112 123.674 66.136C124.234 65.16 125.002 64.4 125.978 63.856C126.97 63.312 128.082 63.04 129.314 63.04C130.386 63.04 131.346 63.28 132.194 63.76C133.042 64.224 133.714 64.936 134.21 65.896C134.706 66.856 134.954 68.088 134.954 69.592C134.954 71.08 134.714 72.312 134.234 73.288C133.754 74.248 133.09 74.968 132.242 75.448C131.394 75.928 130.418 76.168 129.314 76.168ZM129.674 73.6C130.394 73.6 131.034 73.44 131.594 73.12C132.17 72.8 132.626 72.336 132.962 71.728C133.314 71.12 133.49 70.408 133.49 69.592C133.49 68.76 133.314 68.048 132.962 67.456C132.626 66.848 132.17 66.384 131.594 66.064C131.034 65.744 130.394 65.584 129.674 65.584C128.954 65.584 128.306 65.744 127.73 66.064C127.17 66.384 126.714 66.848 126.362 67.456C126.026 68.048 125.858 68.76 125.858 69.592C125.858 70.408 126.026 71.12 126.362 71.728C126.714 72.336 127.17 72.8 127.73 73.12C128.306 73.44 128.954 73.6 129.674 73.6ZM133.562 76V72.976L133.682 69.568L133.442 66.16V58.192H136.418V76H133.562ZM140.366 76V63.184H143.366V76H140.366ZM141.878 61.072C141.318 61.072 140.854 60.896 140.486 60.544C140.134 60.192 139.958 59.768 139.958 59.272C139.958 58.76 140.134 58.336 140.486 58C140.854 57.648 141.318 57.472 141.878 57.472C142.438 57.472 142.894 57.64 143.246 57.976C143.614 58.296 143.798 58.704 143.798 59.2C143.798 59.728 143.622 60.176 143.27 60.544C142.918 60.896 142.454 61.072 141.878 61.072ZM153.064 76.168C151.752 76.168 150.584 75.888 149.56 75.328C148.536 74.752 147.728 73.968 147.136 72.976C146.544 71.984 146.248 70.856 146.248 69.592C146.248 68.312 146.544 67.184 147.136 66.208C147.728 65.216 148.536 64.44 149.56 63.88C150.584 63.32 151.752 63.04 153.064 63.04C154.392 63.04 155.568 63.32 156.592 63.88C157.632 64.44 158.44 65.208 159.016 66.184C159.608 67.16 159.904 68.296 159.904 69.592C159.904 70.856 159.608 71.984 159.016 72.976C158.44 73.968 157.632 74.752 156.592 75.328C155.568 75.888 154.392 76.168 153.064 76.168ZM153.064 73.6C153.8 73.6 154.456 73.44 155.032 73.12C155.608 72.8 156.056 72.336 156.376 71.728C156.712 71.12 156.88 70.408 156.88 69.592C156.88 68.76 156.712 68.048 156.376 67.456C156.056 66.848 155.608 66.384 155.032 66.064C154.456 65.744 153.808 65.584 153.088 65.584C152.352 65.584 151.696 65.744 151.12 66.064C150.56 66.384 150.112 66.848 149.776 67.456C149.44 68.048 149.272 68.76 149.272 69.592C149.272 70.408 149.44 71.12 149.776 71.728C150.112 72.336 150.56 72.8 151.12 73.12C151.696 73.44 152.344 73.6 153.064 73.6ZM175.166 76.168C173.854 76.168 172.686 75.888 171.662 75.328C170.638 74.752 169.83 73.968 169.238 72.976C168.646 71.984 168.35 70.856 168.35 69.592C168.35 68.312 168.646 67.184 169.238 66.208C169.83 65.216 170.638 64.44 171.662 63.88C172.686 63.32 173.854 63.04 175.166 63.04C176.494 63.04 177.67 63.32 178.694 63.88C179.734 64.44 180.542 65.208 181.118 66.184C181.71 67.16 182.006 68.296 182.006 69.592C182.006 70.856 181.71 71.984 181.118 72.976C180.542 73.968 179.734 74.752 178.694 75.328C177.67 75.888 176.494 76.168 175.166 76.168ZM175.166 73.6C175.902 73.6 176.558 73.44 177.134 73.12C177.71 72.8 178.158 72.336 178.478 71.728C178.814 71.12 178.982 70.408 178.982 69.592C178.982 68.76 178.814 68.048 178.478 67.456C178.158 66.848 177.71 66.384 177.134 66.064C176.558 65.744 175.91 65.584 175.19 65.584C174.454 65.584 173.798 65.744 173.222 66.064C172.662 66.384 172.214 66.848 171.878 67.456C171.542 68.048 171.374 68.76 171.374 69.592C171.374 70.408 171.542 71.12 171.878 71.728C172.214 72.336 172.662 72.8 173.222 73.12C173.798 73.44 174.446 73.6 175.166 73.6ZM184.874 76V63.184H187.73V66.712L187.394 65.68C187.778 64.816 188.378 64.16 189.194 63.712C190.026 63.264 191.058 63.04 192.29 63.04V65.896C192.162 65.864 192.042 65.848 191.93 65.848C191.818 65.832 191.706 65.824 191.594 65.824C190.458 65.824 189.554 66.16 188.882 66.832C188.21 67.488 187.874 68.472 187.874 69.784V76H184.874ZM214.098 76.168C212.754 76.168 211.554 75.888 210.498 75.328C209.458 74.752 208.642 73.968 208.05 72.976C207.458 71.984 207.162 70.856 207.162 69.592C207.162 68.312 207.458 67.184 208.05 66.208C208.642 65.216 209.458 64.44 210.498 63.88C211.554 63.32 212.754 63.04 214.098 63.04C215.346 63.04 216.442 63.296 217.386 63.808C218.346 64.304 219.074 65.04 219.57 66.016L217.266 67.36C216.882 66.752 216.41 66.304 215.85 66.016C215.306 65.728 214.714 65.584 214.074 65.584C213.338 65.584 212.674 65.744 212.082 66.064C211.49 66.384 211.026 66.848 210.69 67.456C210.354 68.048 210.186 68.76 210.186 69.592C210.186 70.424 210.354 71.144 210.69 71.752C211.026 72.344 211.49 72.8 212.082 73.12C212.674 73.44 213.338 73.6 214.074 73.6C214.714 73.6 215.306 73.456 215.85 73.168C216.41 72.88 216.882 72.432 217.266 71.824L219.57 73.168C219.074 74.128 218.346 74.872 217.386 75.4C216.442 75.912 215.346 76.168 214.098 76.168ZM222.046 76V63.184H225.046V76H222.046ZM223.558 61.072C222.998 61.072 222.534 60.896 222.166 60.544C221.814 60.192 221.638 59.768 221.638 59.272C221.638 58.76 221.814 58.336 222.166 58C222.534 57.648 222.998 57.472 223.558 57.472C224.118 57.472 224.574 57.64 224.926 57.976C225.294 58.296 225.478 58.704 225.478 59.2C225.478 59.728 225.302 60.176 224.95 60.544C224.598 60.896 224.134 61.072 223.558 61.072ZM233.808 76.168C232.4 76.168 231.312 75.808 230.544 75.088C229.776 74.352 229.392 73.272 229.392 71.848V60.352H232.392V71.776C232.392 72.384 232.544 72.856 232.848 73.192C233.168 73.528 233.608 73.696 234.168 73.696C234.84 73.696 235.4 73.52 235.848 73.168L236.688 75.304C236.336 75.592 235.904 75.808 235.392 75.952C234.88 76.096 234.352 76.168 233.808 76.168ZM227.28 65.68V63.28H235.824V65.68H227.28ZM239.977 80.824C239.353 80.824 238.729 80.72 238.105 80.512C237.481 80.304 236.961 80.016 236.545 79.648L237.745 77.44C238.049 77.712 238.393 77.928 238.777 78.088C239.161 78.248 239.553 78.328 239.953 78.328C240.497 78.328 240.937 78.192 241.273 77.92C241.609 77.648 241.921 77.192 242.209 76.552L242.953 74.872L243.193 74.512L248.041 63.184H250.921L244.921 77.032C244.521 77.992 244.073 78.752 243.577 79.312C243.097 79.872 242.553 80.264 241.945 80.488C241.353 80.712 240.697 80.824 239.977 80.824ZM242.617 76.456L236.833 63.184H239.953L244.657 74.248L242.617 76.456ZM9.072 105.168C8.032 105.168 7.08 104.928 6.216 104.448C5.368 103.968 4.688 103.248 4.176 102.288C3.68 101.312 3.432 100.08 3.432 98.592C3.432 97.088 3.672 95.856 4.152 94.896C4.648 93.936 5.32 93.224 6.168 92.76C7.016 92.28 7.984 92.04 9.072 92.04C10.336 92.04 11.448 92.312 12.408 92.856C13.384 93.4 14.152 94.16 14.712 95.136C15.288 96.112 15.576 97.264 15.576 98.592C15.576 99.92 15.288 101.08 14.712 102.072C14.152 103.048 13.384 103.808 12.408 104.352C11.448 104.896 10.336 105.168 9.072 105.168ZM1.968 109.656V92.184H4.824V95.208L4.728 98.616L4.968 102.024V109.656H1.968ZM8.736 102.6C9.456 102.6 10.096 102.44 10.656 102.12C11.232 101.8 11.688 101.336 12.024 100.728C12.36 100.12 12.528 99.408 12.528 98.592C12.528 97.76 12.36 97.048 12.024 96.456C11.688 95.848 11.232 95.384 10.656 95.064C10.096 94.744 9.456 94.584 8.736 94.584C8.016 94.584 7.368 94.744 6.792 95.064C6.216 95.384 5.76 95.848 5.424 96.456C5.088 97.048 4.92 97.76 4.92 98.592C4.92 99.408 5.088 100.12 5.424 100.728C5.76 101.336 6.216 101.8 6.792 102.12C7.368 102.44 8.016 102.6 8.736 102.6ZM25.6931 92.04C26.7171 92.04 27.6291 92.24 28.4291 92.64C29.2451 93.04 29.8851 93.656 30.3491 94.488C30.8131 95.304 31.0451 96.36 31.0451 97.656V105H28.0451V98.04C28.0451 96.904 27.7731 96.056 27.2291 95.496C26.7011 94.936 25.9571 94.656 24.9971 94.656C24.2931 94.656 23.6691 94.8 23.1251 95.088C22.5811 95.376 22.1571 95.808 21.8531 96.384C21.5651 96.944 21.4211 97.656 21.4211 98.52V105H18.4211V87.192H21.4211V95.64L20.7731 94.584C21.2211 93.768 21.8691 93.144 22.7171 92.712C23.5811 92.264 24.5731 92.04 25.6931 92.04ZM40.6343 105.168C39.3223 105.168 38.1543 104.888 37.1303 104.328C36.1063 103.752 35.2983 102.968 34.7063 101.976C34.1143 100.984 33.8183 99.856 33.8183 98.592C33.8183 97.312 34.1143 96.184 34.7063 95.208C35.2983 94.216 36.1063 93.44 37.1303 92.88C38.1543 92.32 39.3223 92.04 40.6343 92.04C41.9623 92.04 43.1383 92.32 44.1623 92.88C45.2023 93.44 46.0103 94.208 46.5863 95.184C47.1783 96.16 47.4743 97.296 47.4743 98.592C47.4743 99.856 47.1783 100.984 46.5863 101.976C46.0103 102.968 45.2023 103.752 44.1623 104.328C43.1383 104.888 41.9623 105.168 40.6343 105.168ZM40.6343 102.6C41.3703 102.6 42.0263 102.44 42.6023 102.12C43.1783 101.8 43.6263 101.336 43.9463 100.728C44.2823 100.12 44.4503 99.408 44.4503 98.592C44.4503 97.76 44.2823 97.048 43.9463 96.456C43.6263 95.848 43.1783 95.384 42.6023 95.064C42.0263 94.744 41.3783 94.584 40.6583 94.584C39.9223 94.584 39.2663 94.744 38.6903 95.064C38.1303 95.384 37.6823 95.848 37.3463 96.456C37.0103 97.048 36.8423 97.76 36.8423 98.592C36.8423 99.408 37.0103 100.12 37.3463 100.728C37.6823 101.336 38.1303 101.8 38.6903 102.12C39.2663 102.44 39.9143 102.6 40.6343 102.6ZM55.167 105.168C53.759 105.168 52.671 104.808 51.903 104.088C51.135 103.352 50.751 102.272 50.751 100.848V89.352H53.751V100.776C53.751 101.384 53.903 101.856 54.207 102.192C54.527 102.528 54.967 102.696 55.527 102.696C56.199 102.696 56.759 102.52 57.207 102.168L58.047 104.304C57.695 104.592 57.263 104.808 56.751 104.952C56.239 105.096 55.711 105.168 55.167 105.168ZM48.639 94.68V92.28H57.183V94.68H48.639ZM65.853 105.168C64.541 105.168 63.373 104.888 62.349 104.328C61.325 103.752 60.517 102.968 59.925 101.976C59.333 100.984 59.037 99.856 59.037 98.592C59.037 97.312 59.333 96.184 59.925 95.208C60.517 94.216 61.325 93.44 62.349 92.88C63.373 92.32 64.541 92.04 65.853 92.04C67.181 92.04 68.357 92.32 69.381 92.88C70.421 93.44 71.229 94.208 71.805 95.184C72.397 96.16 72.693 97.296 72.693 98.592C72.693 99.856 72.397 100.984 71.805 101.976C71.229 102.968 70.421 103.752 69.381 104.328C68.357 104.888 67.181 105.168 65.853 105.168ZM65.853 102.6C66.589 102.6 67.245 102.44 67.821 102.12C68.397 101.8 68.845 101.336 69.165 100.728C69.501 100.12 69.669 99.408 69.669 98.592C69.669 97.76 69.501 97.048 69.165 96.456C68.845 95.848 68.397 95.384 67.821 95.064C67.245 94.744 66.597 94.584 65.877 94.584C65.141 94.584 64.485 94.744 63.909 95.064C63.349 95.384 62.901 95.848 62.565 96.456C62.229 97.048 62.061 97.76 62.061 98.592C62.061 99.408 62.229 100.12 62.565 100.728C62.901 101.336 63.349 101.8 63.909 102.12C64.485 102.44 65.133 102.6 65.853 102.6ZM81.3698 109.824C80.1858 109.824 79.0258 109.664 77.8898 109.344C76.7698 109.04 75.8498 108.592 75.1298 108L76.4738 105.744C77.0338 106.208 77.7378 106.576 78.5858 106.848C79.4498 107.136 80.3218 107.28 81.2018 107.28C82.6098 107.28 83.6418 106.952 84.2978 106.296C84.9538 105.656 85.2818 104.688 85.2818 103.392V101.112L85.5218 98.208L85.4258 95.304V92.184H88.2818V103.056C88.2818 105.376 87.6898 107.08 86.5058 108.168C85.3218 109.272 83.6098 109.824 81.3698 109.824ZM80.9858 104.424C79.7698 104.424 78.6658 104.168 77.6738 103.656C76.6978 103.128 75.9218 102.4 75.3458 101.472C74.7858 100.544 74.5058 99.456 74.5058 98.208C74.5058 96.976 74.7858 95.896 75.3458 94.968C75.9218 94.04 76.6978 93.32 77.6738 92.808C78.6658 92.296 79.7698 92.04 80.9858 92.04C82.0738 92.04 83.0498 92.256 83.9138 92.688C84.7778 93.12 85.4658 93.792 85.9778 94.704C86.5058 95.616 86.7698 96.784 86.7698 98.208C86.7698 99.632 86.5058 100.808 85.9778 101.736C85.4658 102.648 84.7778 103.328 83.9138 103.776C83.0498 104.208 82.0738 104.424 80.9858 104.424ZM81.4418 101.88C82.1938 101.88 82.8658 101.728 83.4578 101.424C84.0498 101.104 84.5058 100.672 84.8258 100.128C85.1618 99.568 85.3298 98.928 85.3298 98.208C85.3298 97.488 85.1618 96.856 84.8258 96.312C84.5058 95.752 84.0498 95.328 83.4578 95.04C82.8658 94.736 82.1938 94.584 81.4418 94.584C80.6898 94.584 80.0098 94.736 79.4018 95.04C78.8098 95.328 78.3458 95.752 78.0098 96.312C77.6898 96.856 77.5298 97.488 77.5298 98.208C77.5298 98.928 77.6898 99.568 78.0098 100.128C78.3458 100.672 78.8098 101.104 79.4018 101.424C80.0098 101.728 80.6898 101.88 81.4418 101.88ZM97.0498 105.168C95.6418 105.168 94.5538 104.808 93.7858 104.088C93.0178 103.352 92.6338 102.272 92.6338 100.848V89.352H95.6338V100.776C95.6338 101.384 95.7858 101.856 96.0898 102.192C96.4098 102.528 96.8498 102.696 97.4098 102.696C98.0818 102.696 98.6418 102.52 99.0898 102.168L99.9298 104.304C99.5778 104.592 99.1458 104.808 98.6338 104.952C98.1218 105.096 97.5938 105.168 97.0498 105.168ZM90.5218 94.68V92.28H99.0658V94.68H90.5218ZM102.398 105V92.184H105.254V95.712L104.918 94.68C105.302 93.816 105.902 93.16 106.718 92.712C107.55 92.264 108.582 92.04 109.814 92.04V94.896C109.686 94.864 109.566 94.848 109.454 94.848C109.342 94.832 109.23 94.824 109.118 94.824C107.982 94.824 107.078 95.16 106.406 95.832C105.734 96.488 105.398 97.472 105.398 98.784V105H102.398ZM119.341 105V102.408L119.173 101.856V97.32C119.173 96.44 118.909 95.76 118.381 95.28C117.853 94.784 117.053 94.536 115.981 94.536C115.261 94.536 114.549 94.648 113.845 94.872C113.157 95.096 112.573 95.408 112.093 95.808L110.917 93.624C111.605 93.096 112.421 92.704 113.365 92.448C114.325 92.176 115.317 92.04 116.341 92.04C118.197 92.04 119.629 92.488 120.637 93.384C121.661 94.264 122.173 95.632 122.173 97.488V105H119.341ZM115.309 105.168C114.349 105.168 113.509 105.008 112.789 104.688C112.069 104.352 111.509 103.896 111.109 103.32C110.725 102.728 110.533 102.064 110.533 101.328C110.533 100.608 110.701 99.96 111.037 99.384C111.389 98.808 111.957 98.352 112.741 98.016C113.525 97.68 114.565 97.512 115.861 97.512H119.581V99.504H116.077C115.053 99.504 114.365 99.672 114.013 100.008C113.661 100.328 113.485 100.728 113.485 101.208C113.485 101.752 113.701 102.184 114.133 102.504C114.565 102.824 115.165 102.984 115.933 102.984C116.669 102.984 117.325 102.816 117.901 102.48C118.493 102.144 118.917 101.648 119.173 100.992L119.677 102.792C119.389 103.544 118.869 104.128 118.117 104.544C117.381 104.96 116.445 105.168 115.309 105.168ZM133.127 105.168C132.087 105.168 131.135 104.928 130.271 104.448C129.423 103.968 128.743 103.248 128.231 102.288C127.735 101.312 127.487 100.08 127.487 98.592C127.487 97.088 127.727 95.856 128.207 94.896C128.703 93.936 129.375 93.224 130.223 92.76C131.071 92.28 132.039 92.04 133.127 92.04C134.391 92.04 135.503 92.312 136.463 92.856C137.439 93.4 138.207 94.16 138.767 95.136C139.343 96.112 139.631 97.264 139.631 98.592C139.631 99.92 139.343 101.08 138.767 102.072C138.207 103.048 137.439 103.808 136.463 104.352C135.503 104.896 134.391 105.168 133.127 105.168ZM126.023 109.656V92.184H128.879V95.208L128.783 98.616L129.023 102.024V109.656H126.023ZM132.791 102.6C133.511 102.6 134.151 102.44 134.711 102.12C135.287 101.8 135.743 101.336 136.079 100.728C136.415 100.12 136.583 99.408 136.583 98.592C136.583 97.76 136.415 97.048 136.079 96.456C135.743 95.848 135.287 95.384 134.711 95.064C134.151 94.744 133.511 94.584 132.791 94.584C132.071 94.584 131.423 94.744 130.847 95.064C130.271 95.384 129.815 95.848 129.479 96.456C129.143 97.048 128.975 97.76 128.975 98.592C128.975 99.408 129.143 100.12 129.479 100.728C129.815 101.336 130.271 101.8 130.847 102.12C131.423 102.44 132.071 102.6 132.791 102.6ZM149.748 92.04C150.772 92.04 151.684 92.24 152.484 92.64C153.3 93.04 153.94 93.656 154.404 94.488C154.868 95.304 155.1 96.36 155.1 97.656V105H152.1V98.04C152.1 96.904 151.828 96.056 151.284 95.496C150.756 94.936 150.012 94.656 149.052 94.656C148.348 94.656 147.724 94.8 147.18 95.088C146.636 95.376 146.212 95.808 145.908 96.384C145.62 96.944 145.476 97.656 145.476 98.52V105H142.476V87.192H145.476V95.64L144.828 94.584C145.276 93.768 145.924 93.144 146.772 92.712C147.636 92.264 148.628 92.04 149.748 92.04ZM159.727 109.824C159.103 109.824 158.479 109.72 157.855 109.512C157.231 109.304 156.711 109.016 156.295 108.648L157.495 106.44C157.799 106.712 158.143 106.928 158.527 107.088C158.911 107.248 159.303 107.328 159.703 107.328C160.247 107.328 160.687 107.192 161.023 106.92C161.359 106.648 161.671 106.192 161.959 105.552L162.703 103.872L162.943 103.512L167.791 92.184H170.671L164.671 106.032C164.271 106.992 163.823 107.752 163.327 108.312C162.847 108.872 162.303 109.264 161.695 109.488C161.103 109.712 160.447 109.824 159.727 109.824ZM162.367 105.456L156.583 92.184H159.703L164.407 103.248L162.367 105.456Z"
            fill="white" />
</svg>