<svg width="480" height="246" viewBox="0 0 480 246" fill="none" xmlns="http://www.w3.org/2000/svg">
      <path d="M8.49366e-07 243V3H45V243H8.49366e-07ZM69.1406 243V3H134.241L152.241 79.5L168.741 203.4H176.541L168.141 105.9L164.541 3H208.041V243H139.641L121.641 164.4L109.341 42.3H100.941L108.741 150.9L112.641 243H69.1406ZM232.031 243V3H335.831V42.6H277.031V101.1H332.831V140.7H277.031V243H232.031ZM414.841 246C392.841 246 376.891 241.35 366.991 232.05C357.191 222.75 352.041 207.3 351.541 185.7C351.341 175.9 351.191 165.7 351.091 155.1C350.991 144.5 350.941 133.75 350.941 122.85C350.941 111.95 350.991 101.2 351.091 90.6C351.191 80 351.341 69.8 351.541 60C352.041 38.5 357.191 23.15 366.991 13.95C376.891 4.64998 392.841 -1.85966e-05 414.841 -1.85966e-05C436.941 -1.85966e-05 452.791 4.64998 462.391 13.95C471.991 23.15 477.141 38.5 477.841 60C478.241 70 478.541 80.3 478.741 90.9C478.941 101.5 479.041 112.25 479.041 123.15C479.041 133.95 478.941 144.65 478.741 155.25C478.541 165.75 478.241 175.9 477.841 185.7C477.141 207.3 471.991 222.75 462.391 232.05C452.791 241.35 436.941 246 414.841 246ZM414.841 209.4C420.741 209.4 425.191 208.1 428.191 205.5C431.191 202.8 432.741 199 432.841 194.1C433.341 183.9 433.691 172.7 433.891 160.5C434.091 148.3 434.191 135.75 434.191 122.85C434.191 109.95 434.091 97.4 433.891 85.2C433.691 73 433.341 61.8 432.841 51.6C432.741 46.8 431.141 43.1 428.041 40.5C424.941 37.9 420.541 36.6 414.841 36.6C409.141 36.6 404.691 37.9 401.491 40.5C398.391 43.1 396.741 46.8 396.541 51.6C396.141 61.8 395.791 73 395.491 85.2C395.291 97.4 395.191 109.95 395.191 122.85C395.191 135.75 395.291 148.3 395.491 160.5C395.791 172.7 396.141 183.9 396.541 194.1C396.741 199 398.391 202.8 401.491 205.5C404.691 208.1 409.141 209.4 414.841 209.4Z"
            fill="black" />
</svg>