<svg width="80" height="36" viewBox="0 0 80 36" fill="none" xmlns="http://www.w3.org/2000/svg">
      <path d="M0.968 1.4H8.504L11.864 25.448H11.96L15.32 1.4H22.856V35H17.864V9.56H17.768L13.928 35H9.512L5.672 9.56H5.576V35H0.968V1.4ZM34.4281 35.48C31.8361 35.48 29.8521 34.744 28.4761 33.272C27.1001 31.8 26.4121 29.72 26.4121 27.032V9.368C26.4121 6.68 27.1001 4.6 28.4761 3.128C29.8521 1.656 31.8361 0.919998 34.4281 0.919998C37.0201 0.919998 39.0041 1.656 40.3801 3.128C41.7561 4.6 42.4441 6.68 42.4441 9.368V27.032C42.4441 29.72 41.7561 31.8 40.3801 33.272C39.0041 34.744 37.0201 35.48 34.4281 35.48ZM34.4281 30.68C36.2521 30.68 37.1641 29.576 37.1641 27.368V9.032C37.1641 6.824 36.2521 5.72 34.4281 5.72C32.6041 5.72 31.6921 6.824 31.6921 9.032V27.368C31.6921 29.576 32.6041 30.68 34.4281 30.68ZM46.0149 1.4H53.8389C56.5589 1.4 58.5429 2.04 59.7909 3.32C61.0389 4.568 61.6629 6.504 61.6629 9.128V11.192C61.6629 14.68 60.5109 16.888 58.2069 17.816V17.912C59.4869 18.296 60.3829 19.08 60.8949 20.264C61.4389 21.448 61.7109 23.032 61.7109 25.016V30.92C61.7109 31.88 61.7429 32.664 61.8069 33.272C61.8709 33.848 62.0309 34.424 62.2869 35H56.9109C56.7189 34.456 56.5909 33.944 56.5269 33.464C56.4629 32.984 56.4309 32.12 56.4309 30.872V24.728C56.4309 23.192 56.1749 22.12 55.6629 21.512C55.1829 20.904 54.3349 20.6 53.1189 20.6H51.2949V35H46.0149V1.4ZM53.2149 15.8C54.2709 15.8 55.0549 15.528 55.5669 14.984C56.1109 14.44 56.3829 13.528 56.3829 12.248V9.656C56.3829 8.44 56.1589 7.56 55.7109 7.016C55.2949 6.472 54.6229 6.2 53.6949 6.2H51.2949V15.8H53.2149ZM65.3743 1.4H79.7743V6.2H70.6543V15.08H77.9023V19.88H70.6543V30.2H79.7743V35H65.3743V1.4Z"
            fill="white" />
</svg>